# xmcd
#
# Track frame offsets:
#	150
#	4663
#	13181
#	23288
#	32251
#	41357
#	50071
#	60002
#	67478
#	77409
#	86068
#	93945
#	103650
#	111096
#	117912
#	123374
#	128930
#	138592
#
# Disc length: 1916 seconds
#
# Revision: 0
# Processed by: cddbd v1.5.2PL0 Copyright (c) Steve Scherf et al.
# Submitted via: audiograbber 1.82.02
#
DISCID=df077a12
DTITLE=Jim Reeves - I'm A Hit Again - Disc 2
DYEAR=2008
DGENRE=Country
TTITLE0=Jim Reeves - Intro
TTITLE1=Jim Reeves - Put A Light In Your Window
TTITLE2=Jim Reeves - Love Letters In The Sand
TTITLE3=Jim Reeves - My Special Angel
TTITLE4=Jim Reeves - Story Of My Life
TTITLE5=Jim Reeves - Gonna Find A Bluebird
TTITLE6=Jim Reeves - Remember You're Mine
TTITLE7=Jim Reeves - Around The World
TTITLE8=Jim Reeves - I'm Alone Because I Love You
TTITLE9=Jim Reeves - Pretend You Don't See Her
TTITLE10=Jim Reeves - With You On My Mind
TTITLE11=Jim Reeves - Love Me To Pieces
TTITLE12=Jim Reeves - Melodie D'amour
TTITLE13=Jim Reeves - Careless
TTITLE14=Jim Reeves - Housewives Prayer
TTITLE15=Jim Reeves - Old Pard
TTITLE16=Jim Reeves - Goldmine In The Sky
TTITLE17=Jim Reeves - Outro
EXTD=
EXTT0=
EXTT1=
EXTT2=
EXTT3=
EXTT4=
EXTT5=
EXTT6=
EXTT7=
EXTT8=
EXTT9=
EXTT10=
EXTT11=
EXTT12=
EXTT13=
EXTT14=
EXTT15=
EXTT16=
EXTT17=
PLAYORDER=
